<svg xmlns="http://www.w3.org/2000/svg" width="200" height="200" viewBox="0 0 200 200">
   <g fill="none" fill-rule="evenodd">
      <rect style="display:none;opacity:1;fill:#000000;fill-opacity:1;stroke:#000000;stroke-width:0.264583;stroke-opacity:1" id="rect3155" width="209.85237" height="209.85237" x="0.038517088" y="0.038515244" />
      <path style="display:inline;opacity:1;fill:#ffffff;fill-opacity:1;stroke:none;stroke-width:0.264583px;stroke-linecap:butt;stroke-linejoin:miter;stroke-opacity:1" d="M 41.059642,53.29838 56.194581,38.163441 h 48.366849 l 1.18863,4.192993 4.53465,-4.192106 h 57.39241 L 140.64453,65.19692 v 67.22293 l -36.90058,38.54126 v -29.46988 l -4.905762,4.90577 v 4.09204 L 83.676724,165.65051 61.758802,142.32942 61.959254,72.56926 Z" id="path847" />
      <path style="display:inline;opacity:1;fill:#000000;fill-opacity:1;stroke:none;stroke-width:0.264583px;stroke-linecap:butt;stroke-linejoin:miter;stroke-opacity:1" d="M 45.935918,53.318266 57.895743,41.358441 h 44.234627 l 1.61228,8.203687 8.18096,-8.180964 h 47.71982 l -22.24302,22.24302 v 67.997706 l -30.34226,31.14525 v -29.51872 l -11.476959,11.47695 v 4.07694 L 83.65065,160.73285 65.200892,140.63667 V 70.918299 Z" id="path3135" />
      <path style="display:inline;opacity:1;fill:#df1918;fill-opacity:1;stroke:none;stroke-width:0.264583px;stroke-linecap:butt;stroke-linejoin:miter;stroke-opacity:1" d="m 60.216332,43.927921 h 38.648066 l 7.736702,42.557755 7.00437,-42.640437 h 38.55357 L 134.1044,61.899871 v 68.927139 l -15.52932,15.52932 v -44.1675 l -12.3605,27.69581 -13.232439,-31.008431 v 47.577751 l -15.473399,-15.4734 v -70.7781 z" id="path3153" />
   </g>
</svg>