<?xml version="1.0" encoding="iso-8859-1"?>
<!-- Generator: Adobe Illustrator 19.0.0, SVG Export Plug-In . SVG Version: 6.00 Build 0)  -->
<svg version="1.1" id="Layer_1" xmlns="http://www.w3.org/2000/svg" xmlns:xlink="http://www.w3.org/1999/xlink" x="0px" y="0px"
	 viewBox="0 0 512 512" style="enable-background:new 0 0 512 512;" xml:space="preserve">
<polygon style="fill:#BFA779;" points="13.892,171.622 89.6,121.148 89.6,220.612 "/>
<path style="fill:#E9EBEF;" d="M89.6,220.621V12.8h332.8v207.821L256,328.277L89.6,220.621z M256,64
	c-49.408,0-89.6,40.192-89.6,89.6s40.192,89.6,89.6,89.6s89.6-40.192,89.6-89.6S305.408,64,256,64z"/>
<path style="fill:#FF877F;" d="M256,243.2c-18.56,0-36.471-5.769-51.806-16.674l-12.339-8.772L320.154,89.455l8.772,12.339
	C339.831,117.129,345.6,135.04,345.6,153.6C345.6,203.008,305.408,243.2,256,243.2z"/>
<polygon style="fill:#FEDEA1;" points="12.8,499.2 12.8,170.923 256.009,328.286 499.2,170.923 499.2,499.2 "/>
<path style="fill:#FF877F;" d="M183.074,205.406C172.169,190.071,166.4,172.16,166.4,153.6c0-49.408,40.192-89.6,89.6-89.6
	c18.56,0,36.471,5.769,51.806,16.674l12.339,8.772L191.846,217.754L183.074,205.406z"/>
<polygon style="fill:#BFA779;" points="422.4,121.148 498.108,171.622 422.4,220.612 "/>
<g>
	<path style="fill:#573A32;" d="M500.6,157.901l-65.4-43.597V0H76.8v114.304l-65.399,43.597C4.275,162.645,0,170.641,0,179.2v307.2
		C0,500.54,11.46,512,25.6,512h460.8c14.14,0,25.6-11.46,25.6-25.6V179.2C512,170.641,507.725,162.645,500.6,157.901z
		 M435.2,145.067l39.595,26.394L435.2,197.086V145.067z M102.4,25.6h307.2v188.049L256,313.037l-153.6-99.388V25.6z M76.8,145.067
		v52.019l-39.595-25.617L76.8,145.067z M486.4,486.4H25.6V194.449l206.839,133.837L44.254,450.048
		c-5.939,3.849-7.637,11.776-3.797,17.698c2.441,3.806,6.554,5.854,10.752,5.854c2.389,0,4.787-0.674,6.938-2.048L256,343.526
		l197.854,128.026c2.15,1.374,4.548,2.048,6.938,2.048c4.198,0,8.311-2.048,10.761-5.854c3.84-5.922,2.133-13.85-3.797-17.698
		L279.569,328.277L486.4,194.449V486.4z"/>
	<path style="fill:#573A32;" d="M358.4,153.6c0-56.465-45.935-102.4-102.4-102.4S153.6,97.135,153.6,153.6S199.535,256,256,256
		S358.4,210.065,358.4,153.6z M179.2,153.6c0-42.419,34.381-76.8,76.8-76.8c16.58,0,31.838,5.376,44.39,14.31L193.51,197.99
		C184.576,185.438,179.2,170.18,179.2,153.6z M318.49,109.21c8.934,12.553,14.31,27.81,14.31,44.39c0,42.419-34.381,76.8-76.8,76.8
		c-16.58,0-31.838-5.376-44.39-14.31L318.49,109.21z"/>
</g>
<g>
</g>
<g>
</g>
<g>
</g>
<g>
</g>
<g>
</g>
<g>
</g>
<g>
</g>
<g>
</g>
<g>
</g>
<g>
</g>
<g>
</g>
<g>
</g>
<g>
</g>
<g>
</g>
<g>
</g>
</svg>
